<mxfile host="app.diagrams.net" modified="2021-03-22T09:49:49.766Z" agent="5.0 (Macintosh)" etag="s1l4ZuZyZfccwcRMoDk9" version="13.10.2" type="github">
  <diagram id="l9ncGngkWn3IO0GVBlcq" name="Page-1">
    <mxGraphModel dx="2514" dy="1443" grid="1" gridSize="10" guides="1" tooltips="1" connect="1" arrows="1" fold="1" page="1" pageScale="1" pageWidth="827" pageHeight="1169" math="0" shadow="0">
      <root>
        <mxCell id="0" />
        <mxCell id="1" parent="0" />
        <mxCell id="MBoSTC9Xswts3mCIpynU-1" value="&lt;div&gt;&lt;h2&gt;StoreEntityProvider&lt;/h2&gt;&lt;/div&gt;" style="rounded=1;whiteSpace=wrap;html=1;fillOpacity=100;fillColor=#dae8fc;align=right;spacingLeft=20;direction=west;horizontal=0;verticalAlign=top;strokeOpacity=100;spacingTop=10;strokeColor=#6c8ebf;spacingRight=20;" vertex="1" parent="1">
          <mxGeometry x="40" y="260" width="640" height="450" as="geometry" />
        </mxCell>
        <mxCell id="MBoSTC9Xswts3mCIpynU-4" value="&lt;font size=&quot;1&quot; color=&quot;#CC6600&quot;&gt;&lt;b style=&quot;font-size: 16px&quot;&gt;store&lt;/b&gt;&lt;/font&gt;" style="ellipse;whiteSpace=wrap;html=1;fillColor=#f8cecc;align=center;strokeColor=#b85450;" vertex="1" parent="1">
          <mxGeometry x="210" y="275" width="100" height="70" as="geometry" />
        </mxCell>
        <mxCell id="MBoSTC9Xswts3mCIpynU-5" value="&lt;font style=&quot;font-size: 16px&quot;&gt;&lt;b&gt;getComponent()&lt;/b&gt;&lt;/font&gt;" style="rounded=0;whiteSpace=wrap;html=1;align=center;fillColor=#fff2cc;strokeColor=#d6b656;fontColor=#994C00;" vertex="1" parent="1">
          <mxGeometry x="380" y="280" width="190" height="60" as="geometry" />
        </mxCell>
        <mxCell id="MBoSTC9Xswts3mCIpynU-6" value="&lt;font style=&quot;font-size: 16px&quot;&gt;&lt;b&gt;StoreEntityConsumer&lt;/b&gt;&lt;/font&gt;" style="rounded=1;whiteSpace=wrap;html=1;fillColor=#d5e8d4;align=right;horizontal=0;verticalAlign=top;spacingRight=20;strokeColor=#82b366;" vertex="1" parent="1">
          <mxGeometry x="120" y="350" width="520" height="330" as="geometry" />
        </mxCell>
        <mxCell id="MBoSTC9Xswts3mCIpynU-7" value="&lt;font style=&quot;font-size: 16px&quot;&gt;&lt;b&gt;Rendered Component&lt;/b&gt;&lt;/font&gt;" style="rounded=1;whiteSpace=wrap;html=1;fillColor=#1ba1e2;fontColor=#ffffff;align=center;strokeColor=#006EAF;" vertex="1" parent="1">
          <mxGeometry x="150" y="590" width="460" height="60" as="geometry" />
        </mxCell>
        <mxCell id="MBoSTC9Xswts3mCIpynU-8" value="" style="shape=flexArrow;endArrow=classic;html=1;fontColor=#000000;exitX=0.5;exitY=1;exitDx=0;exitDy=0;fillColor=#1ba1e2;strokeColor=#006EAF;" edge="1" parent="1" source="MBoSTC9Xswts3mCIpynU-5">
          <mxGeometry width="50" height="50" relative="1" as="geometry">
            <mxPoint x="1000" y="690" as="sourcePoint" />
            <mxPoint x="475" y="589" as="targetPoint" />
          </mxGeometry>
        </mxCell>
        <mxCell id="MBoSTC9Xswts3mCIpynU-12" value="&lt;div&gt;&lt;br&gt;&lt;/div&gt;" style="verticalLabelPosition=bottom;verticalAlign=middle;html=1;shape=mxgraph.basic.layered_rect;dx=10;outlineConnect=0;fillColor=#ffffff;fontColor=#000000;align=right;" vertex="1" parent="1">
          <mxGeometry x="210" y="420" width="100" height="50" as="geometry" />
        </mxCell>
        <mxCell id="MBoSTC9Xswts3mCIpynU-14" value="" style="shape=flexArrow;endArrow=classic;html=1;fontColor=#000000;exitX=0.5;exitY=1;exitDx=0;exitDy=0;fillColor=#fad9d5;strokeColor=#ae4132;" edge="1" parent="1" source="MBoSTC9Xswts3mCIpynU-4" target="MBoSTC9Xswts3mCIpynU-12">
          <mxGeometry width="50" height="50" relative="1" as="geometry">
            <mxPoint x="1000" y="690" as="sourcePoint" />
            <mxPoint x="1050" y="640" as="targetPoint" />
          </mxGeometry>
        </mxCell>
        <mxCell id="MBoSTC9Xswts3mCIpynU-16" value="&lt;div&gt;selector,&lt;/div&gt;&lt;div&gt;instanceId&lt;br&gt;&lt;/div&gt;" style="html=1;shadow=0;dashed=0;align=center;verticalAlign=middle;shape=mxgraph.arrows2.arrow;dy=0;dx=30;notch=30;fillColor=#b0e3e6;direction=west;strokeColor=#0e8088;" vertex="1" parent="1">
          <mxGeometry x="265" y="360" width="124" height="40" as="geometry" />
        </mxCell>
        <mxCell id="MBoSTC9Xswts3mCIpynU-17" value="&lt;font style=&quot;font-size: 16px&quot;&gt;&lt;b&gt;uiProps&lt;/b&gt;&lt;/font&gt;" style="rounded=0;whiteSpace=wrap;html=1;fontColor=#000000;align=center;fillColor=none;strokeColor=none;" vertex="1" parent="1">
          <mxGeometry x="211" y="411" width="100" height="60" as="geometry" />
        </mxCell>
        <mxCell id="MBoSTC9Xswts3mCIpynU-20" value="" style="shape=flexArrow;endArrow=classic;html=1;fontColor=#000000;fillColor=#1ba1e2;strokeColor=#006EAF;" edge="1" parent="1">
          <mxGeometry width="50" height="50" relative="1" as="geometry">
            <mxPoint x="259" y="471" as="sourcePoint" />
            <mxPoint x="259" y="510" as="targetPoint" />
            <Array as="points" />
          </mxGeometry>
        </mxCell>
        <mxCell id="MBoSTC9Xswts3mCIpynU-22" value="&lt;font style=&quot;font-size: 12px&quot;&gt;uiPropsInterceptor&lt;/font&gt;" style="strokeWidth=2;html=1;shape=mxgraph.flowchart.terminator;whiteSpace=wrap;fillColor=#dae8fc;align=center;gradientColor=#7ea6e0;strokeColor=#6c8ebf;" vertex="1" parent="1">
          <mxGeometry x="195" y="510" width="130" height="30" as="geometry" />
        </mxCell>
        <mxCell id="MBoSTC9Xswts3mCIpynU-23" value="" style="shape=flexArrow;endArrow=classic;html=1;fontColor=#000000;fillColor=#1ba1e2;strokeColor=#006EAF;" edge="1" parent="1">
          <mxGeometry width="50" height="50" relative="1" as="geometry">
            <mxPoint x="260" y="540" as="sourcePoint" />
            <mxPoint x="260" y="589" as="targetPoint" />
            <Array as="points" />
          </mxGeometry>
        </mxCell>
      </root>
    </mxGraphModel>
  </diagram>
</mxfile>
